<svg xmlns="http://www.w3.org/2000/svg" xmlns:xlink="http://www.w3.org/1999/xlink" width="446" height="293.156" id="screenshot-dabc2430-8183-806b-8007-fd8c22855dc0" viewBox="0 0 446 293.156" fill="none" version="1.1"><g id="shape-dabc2430-8183-806b-8007-fd8c22855dc0" rx="0" ry="0"><g id="shape-dabc2430-8183-806b-8007-fd8a6d9edc6b"><g class="fills" id="fills-dabc2430-8183-806b-8007-fd8a6d9edc6b"><path d="M91,145C91,145,136.45703125,175.115234375,227.3671875,175.115234375C313.12109375,175.115234375,356,145,356,145L356,247C356,247,344,293.15625,227.796875,293.15625C100.99609375,293.15625,91,247,91,247L91,145" style="fill: rgb(79, 70, 229); fill-opacity: 1;"/></g></g><g id="shape-dabc2430-8183-806b-8007-fd8b2c8dcaaa"><g class="fills" id="fills-dabc2430-8183-806b-8007-fd8b2c8dcaaa"><path d="M223,0C346.078125,0,446,30.24609375,446,67.5C446,104.75390625,346.078125,135,223,135C99.921875,135,0,104.75390625,0,67.5C0,30.24609375,99.921875,0,223,0M223.5,26C148.1640625,26,87,42.580078125,87,63C90,71,97,76,108.296875,79.548828125C147,69,175.08984375,64.994140625,223.5,64.994140625C269.921875,64.994140625,314,71,335.62890625,80.384765625C351,74,358,70,360,63C360,42.580078125,298.8359375,26,223.5,26" style="fill: rgb(79, 70, 229); fill-opacity: 1;"/></g></g></g></svg>